<?xml version="1.0" standalone="no"?>
<!DOCTYPE svg PUBLIC "-//W3C//DTD SVG 20010904//EN"
 "http://www.w3.org/TR/2001/REC-SVG-20010904/DTD/svg10.dtd">
<svg version="1.0" xmlns="http://www.w3.org/2000/svg"
 width="144.000000pt" height="144.000000pt" viewBox="0 0 144.000000 144.000000"
 preserveAspectRatio="xMidYMid meet">
<metadata>
Created by potrace 1.11, written by Peter Selinger 2001-2013
</metadata>
<g transform="translate(0.000000,144.000000) scale(0.100000,-0.100000)"
fill="#000000" stroke="none">
<path d="M622 1424 c-190 -51 -336 -223 -403 -475 -33 -122 -33 -338 -1 -458
90 -332 321 -526 574 -483 314 54 525 462 452 876 -65 376 -342 616 -622 540z
m180 -15 c186 -40 344 -219 409 -464 31 -114 31 -336 0 -450 -51 -194 -168
-357 -306 -428 -271 -139 -566 53 -667 433 -32 121 -32 319 0 440 66 247 213
421 397 466 65 16 102 17 167 3z"/>
<path d="M663 1271 c-34 -16 -80 -49 -103 -72 -131 -135 -146 -364 -30 -432
l38 -21 -19 -34 c-18 -34 -17 -76 2 -114 10 -19 99 -71 99 -58 0 5 -15 16 -34
25 -76 36 -87 117 -25 181 18 19 28 34 23 34 -6 0 -15 -5 -21 -11 -14 -14 -58
10 -83 45 -59 80 -51 224 17 328 69 104 230 164 328 124 21 -9 37 -11 41 -5 9
16 -61 39 -118 39 -38 0 -71 -8 -115 -29z"/>
<path d="M665 1226 c-27 -13 -63 -39 -80 -57 -16 -19 -21 -26 -10 -17 27 23
100 48 136 48 16 0 51 -8 77 -18 45 -17 50 -18 60 -3 6 9 -4 -36 -23 -99 -40
-141 -59 -220 -53 -226 3 -2 22 62 44 143 21 82 40 139 42 128 2 -11 8 -24 12
-30 5 -5 14 -39 21 -75 7 -35 14 -59 17 -51 6 17 -17 133 -30 148 -5 7 -6 18
-2 24 9 15 20 -12 40 -101 8 -36 17 -73 20 -82 5 -15 -1 -18 -38 -18 -59 0
-85 -9 -91 -29 -3 -14 3 -16 52 -10 31 3 63 8 71 10 11 3 19 -15 32 -76 9 -44
17 -83 17 -86 1 -4 17 -19 37 -34 35 -27 37 -27 50 -10 16 22 18 39 5 30 -21
-12 -49 38 -64 118 -82 418 -84 424 -120 355 -11 -21 -15 -24 -11 -10 13 51
-123 70 -211 28z"/>
<path d="M706 1172 c-2 -4 13 -6 35 -4 21 2 39 6 39 8 0 7 -69 4 -74 -4z"/>
<path d="M636 1118 c-34 -39 -48 -88 -26 -88 6 0 10 12 10 28 0 16 13 43 31
65 42 51 29 47 -15 -5z"/>
<path d="M720 1144 c-40 -17 -67 -40 -82 -69 -10 -19 -10 -19 13 1 39 35 65
38 111 14 44 -23 58 -17 58 27 0 15 -9 24 -31 32 -18 6 -32 11 -33 11 -1 -1
-17 -8 -36 -16z"/>
<path d="M726 1082 c-6 -10 53 -56 61 -48 7 7 -15 34 -38 47 -10 5 -20 5 -23
1z"/>
<path d="M846 1064 c-4 -14 -5 -28 -3 -31 3 -2 8 8 11 23 4 14 5 28 3 31 -3 2
-8 -8 -11 -23z"/>
<path d="M499 1043 c-6 -16 -12 -57 -12 -93 -1 -100 35 -154 107 -162 25 -3
51 2 75 14 19 10 48 18 63 18 15 0 29 4 32 9 6 8 -62 -1 -99 -15 -16 -6 -14 0
10 26 l30 33 -37 -27 c-46 -34 -85 -29 -123 16 -32 38 -38 61 -33 142 1 36 2
66 0 66 -1 0 -7 -12 -13 -27z"/>
<path d="M826 984 c-4 -14 -5 -28 -3 -31 3 -2 8 8 11 23 4 14 5 28 3 31 -3 2
-8 -8 -11 -23z"/>
<path d="M691 906 l-44 -51 48 47 c27 26 47 49 45 52 -3 2 -25 -19 -49 -48z"/>
<path d="M910 890 c-8 -5 -31 -7 -51 -4 -22 4 -39 2 -43 -5 -8 -13 47 -19 83
-10 7 2 16 -2 18 -8 3 -7 -2 -13 -11 -13 -8 0 -18 -5 -22 -12 -5 -7 0 -9 14
-6 19 5 22 0 32 -51 6 -31 12 -59 13 -62 6 -18 89 -81 97 -73 5 5 -11 25 -40
49 -41 34 -50 47 -55 85 -15 107 -19 120 -35 110z"/>
<path d="M608 853 c7 -3 16 -2 19 1 4 3 -2 6 -13 5 -11 0 -14 -3 -6 -6z"/>
<path d="M864 784 l-34 -35 -27 28 c-26 26 -32 28 -72 21 -70 -12 -133 -48
-155 -88 -17 -32 -17 -38 -3 -72 19 -45 60 -68 136 -74 98 -9 120 -14 151 -40
25 -22 30 -33 30 -73 0 -33 -7 -58 -26 -86 l-25 -40 26 30 c65 73 73 118 35
180 -26 43 -70 63 -155 70 -92 9 -133 22 -151 50 -24 37 8 93 63 109 34 11
103 -13 136 -46 29 -28 31 -29 44 -12 7 10 13 26 13 37 0 12 11 23 30 30 18 7
30 19 30 29 0 26 -8 23 -46 -18z"/>
<path d="M1113 798 c-30 -34 -41 -57 -16 -35 11 9 25 17 31 17 7 0 12 2 12 4
0 2 3 11 6 20 9 23 -9 20 -33 -6z"/>
<path d="M1070 785 c-7 -9 -10 -18 -7 -21 3 -3 10 4 17 15 13 25 8 27 -10 6z"/>
<path d="M875 750 c4 -6 11 -8 16 -5 14 9 11 15 -7 15 -8 0 -12 -5 -9 -10z"/>
<path d="M680 745 c0 -3 16 -11 35 -19 19 -8 35 -20 35 -26 0 -6 5 -8 10 -5
17 10 11 -5 -16 -43 l-26 -37 29 34 c20 22 32 30 37 23 4 -7 14 -12 22 -12 22
0 -10 45 -51 70 -29 18 -75 27 -75 15z"/>
<path d="M530 561 c0 -23 52 -83 79 -92 21 -7 -37 -109 -73 -128 -54 -30 -96
-72 -96 -97 0 -24 1 -24 29 -10 29 15 75 64 83 88 3 9 27 13 79 13 85 0 123
-17 143 -66 l12 -29 26 39 25 39 -72 17 c-42 10 -99 15 -134 13 -34 -1 -61 -1
-61 2 1 3 14 28 29 55 29 49 30 50 82 53 67 4 110 -4 135 -24 18 -15 18 -15
-3 -5 -12 6 -32 10 -45 10 -20 -1 -21 -2 -3 -6 11 -3 30 -14 43 -26 12 -11 22
-15 22 -9 0 7 6 11 12 9 23 -4 19 38 -5 61 -16 15 -46 25 -99 34 -50 7 -75 15
-71 22 4 6 0 5 -9 -2 -13 -10 -23 -10 -57 4 -23 9 -48 26 -56 37 l-15 21 0
-23z m-5 -265 c-19 -29 -42 -39 -51 -24 -7 12 33 47 54 48 9 0 8 -6 -3 -24z"/>
<path d="M501 547 c-1 -21 26 -77 37 -77 4 0 15 -7 26 -15 17 -13 17 -15 -5
-54 -15 -28 -33 -44 -56 -52 -42 -14 -83 -66 -83 -107 0 -17 4 -33 8 -36 5 -3
6 9 4 25 -6 43 14 74 65 101 29 15 54 39 74 71 33 54 34 57 15 57 -23 0 -59
36 -72 71 -7 19 -13 26 -13 16z"/>
<path d="M780 529 c54 -13 79 -35 90 -80 l8 -34 1 37 c1 30 -4 41 -29 58 -17
12 -50 24 -73 26 l-42 4 45 -11z"/>
<path d="M658 433 c7 -3 16 -2 19 1 4 3 -2 6 -13 5 -11 0 -14 -3 -6 -6z"/>
<path d="M596 372 c-2 -4 30 -8 72 -9 68 -1 72 0 32 7 -60 11 -98 12 -104 2z"/>
<path d="M695 311 c27 -12 54 -43 66 -77 9 -27 9 -27 4 6 -5 38 -45 80 -73 79
-14 0 -13 -2 3 -8z"/>
</g>
</svg>
